<?xml version="1.0" encoding="UTF-8" standalone="no"?>
<!--?xml version="1.0" encoding="UTF-8" standalone="no"?-->

<svg
   xmlns:dc="http://purl.org/dc/elements/1.1/"
   xmlns:cc="http://creativecommons.org/ns#"
   xmlns:rdf="http://www.w3.org/1999/02/22-rdf-syntax-ns#"
   xmlns:svg="http://www.w3.org/2000/svg"
   xmlns="http://www.w3.org/2000/svg"
   xmlns:sodipodi="http://sodipodi.sourceforge.net/DTD/sodipodi-0.dtd"
   xmlns:inkscape="http://www.inkscape.org/namespaces/inkscape"
   version="1.1"
   viewBox="0.00 0.00 379.00 301.00"
   id="svg2266"
   sodipodi:docname="asdys_Inscapet.svg"
   inkscape:version="0.92.4 (5da689c313, 2019-01-14)">
  <metadata
     id="metadata2272">
    <rdf:RDF>
      <cc:Work
         rdf:about="">
        <dc:format>image/svg+xml</dc:format>
        <dc:type
           rdf:resource="http://purl.org/dc/dcmitype/StillImage" />
        <dc:title />
      </cc:Work>
    </rdf:RDF>
  </metadata>
  <defs
     id="defs2270" />
  <sodipodi:namedview
     pagecolor="#ffffff"
     bordercolor="#666666"
     borderopacity="1"
     objecttolerance="10"
     gridtolerance="10"
     guidetolerance="10"
     inkscape:pageopacity="0"
     inkscape:pageshadow="2"
     inkscape:window-width="1920"
     inkscape:window-height="1017"
     id="namedview2268"
     showgrid="false"
     showguides="false"
     inkscape:zoom="2.8591284"
     inkscape:cx="144.91207"
     inkscape:cy="138.14773"
     inkscape:window-x="-8"
     inkscape:window-y="-8"
     inkscape:window-maximized="1"
     inkscape:current-layer="svg2266" />
  <path
     d="M 0,0 H 379 V 301 H 0 Z m 169.49,262.18 c 3.4,1.8 10.95,6.27 14.61,5.02 31.62,-10.85 57.17,-33.14 75.55,-61.21 q 5.58,-8.52 9.49,-17.63 c 8.13,-18.9 13.68,-39.27 13.78,-59.29 q 0.2,-38.95 0.06,-71.57 a 1.53,1.52 -77.5 0 0 -0.86,-1.36 C 229.57,30.68 167.04,27.76 112.12,44.62 Q 96.57,49.39 82.85,56.6 a 1.53,1.52 -13.9 0 0 -0.82,1.35 q -0.11,34.21 0.06,68.8 c 0.28,58.42 36.66,108.69 87.4,135.43 z"
     id="path2162"
     inkscape:connector-curvature="0"
     style="display:inline;fill:none" />
  <path
     d="   M 169.49 262.18   C 118.75 235.44 82.37 185.17 82.09 126.75   Q 81.92 92.16 82.03 57.95   A 1.53 1.52 -13.9 0 1 82.85 56.60   Q 96.57 49.39 112.12 44.62   C 167.04 27.76 229.57 30.68 282.12 56.14   A 1.53 1.52 -77.5 0 1 282.98 57.50   Q 283.12 90.12 282.92 129.07   C 282.82 149.09 277.27 169.46 269.14 188.36   Q 265.23 197.47 259.65 205.99   C 241.27 234.06 215.72 256.35 184.10 267.20   C 180.44 268.45 172.89 263.98 169.49 262.18   Z   M 257.08 190.04   Q 269.56 165.48 272.28 139.98   Q 273.09 132.33 273.04 120.11   Q 272.91 92.43 273.26 65.08   A 2.27 2.27 0.0 0 0 271.92 62.98   C 233.60 45.84 189.83 39.72 148.81 46.46   Q 130.32 49.50 113.45 54.83   C 106.69 56.96 100.09 59.91 93.40 62.26   A 1.88 1.88 0.0 0 0 92.16 64.04   Q 92.34 91.47 92.16 121.30   Q 92.10 132.38 93.16 141.09   Q 99.44 192.51 137.22 228.09   Q 154.26 244.13 179.85 255.33   C 181.78 256.18 183.78 256.25 185.74 255.41   C 216.00 242.33 242.13 219.47 257.08 190.04   Z"
     id="path2164"
     style="stroke-width:1;stroke-miterlimit:4;stroke-dasharray:none;stroke:#000000;stroke-opacity:1;stroke-linecap:round;stroke-linejoin:round;stroke-dashoffset:0"
     fill="#36733f" />
  <path
     d="   M 257.08 190.04   C 242.13 219.47 216.00 242.33 185.74 255.41   C 183.78 256.25 181.78 256.18 179.85 255.33   Q 154.26 244.13 137.22 228.09   Q 99.44 192.51 93.16 141.09   Q 92.10 132.38 92.16 121.30   Q 92.34 91.47 92.16 64.04   A 1.88 1.88 0.0 0 1 93.40 62.26   C 100.09 59.91 106.69 56.96 113.45 54.83   Q 130.32 49.50 148.81 46.46   C 189.83 39.72 233.60 45.84 271.92 62.98   A 2.27 2.27 0.0 0 1 273.26 65.08   Q 272.91 92.43 273.04 120.11   Q 273.09 132.33 272.28 139.98   Q 269.56 165.48 257.08 190.04   Z   M 181.47 55.35   A 0.29 0.29 0.0 0 1 181.67 54.87   L 183.94 54.68   A 0.29 0.29 0.0 0 0 184.20 54.40   L 184.22 53.49   A 0.29 0.29 0.0 0 0 183.98 53.20   L 182.10 52.87   A 0.29 0.29 0.0 0 1 181.94 52.39   L 184.45 49.67   A 0.29 0.29 0.0 0 0 184.42 49.24   L 183.73 48.67   A 0.29 0.29 0.0 0 0 183.33 48.70   L 178.32 54.07   A 0.29 0.29 0.0 0 0 178.32 54.47   L 183.59 59.97   A 0.29 0.29 0.0 0 0 184.08 59.85   L 184.35 58.86   A 0.29 0.29 0.0 0 0 184.29 58.59   L 181.47 55.35   Z   M 196.83 50.77   Q 197.99 51.03 198.64 50.04   Q 199.02 49.47 198.35 49.32   Q 194.90 48.55 191.74 49.01   Q 190.91 49.13 191.42 49.80   Q 192.05 50.63 193.22 50.53   A 0.84 0.84 0.0 0 1 194.12 51.44   L 193.40 60.18   A 0.47 0.47 0.0 0 0 193.96 60.68   L 194.30 60.62   Q 195.20 60.45 195.26 59.54   L 195.87 51.48   A 0.79 0.79 0.0 0 1 196.83 50.77   Z   M 170.87 56.13   L 168.57 59.80   Q 168.33 60.18 168.75 60.35   L 169.06 60.48   Q 169.89 60.82 170.36 60.07   L 173.35 55.33   A 0.51 0.50 30.8 0 0 173.17 54.63   L 171.32 53.56   A 1.13 1.13 0.0 0 1 171.01 51.88   L 172.67 49.79   A 0.46 0.46 0.0 0 0 172.48 49.08   Q 171.70 48.76 171.13 49.37   Q 169.66 50.96 168.59 52.55   Q 168.27 53.04 168.64 53.48   Q 169.41 54.39 170.53 54.94   A 0.84 0.83 -61.2 0 1 170.87 56.13   Z   M 187.93 54.48   A 1.03 1.03 0.0 0 1 188.29 55.96   L 186.01 59.29   A 0.43 0.42 20.8 0 0 186.31 59.95   L 186.71 59.99   A 1.27 1.23 19.8 0 0 187.90 59.45   L 190.54 55.54   A 1.12 1.11 30.1 0 0 190.10 53.91   L 188.64 53.21   Q 188.09 52.94 188.32 52.38   Q 188.76 51.34 189.59 50.55   A 1.26 1.25 61.4 0 0 189.95 49.31   L 189.89 49.07   A 0.29 0.28 66.1 0 0 189.46 48.90   Q 187.52 50.21 186.30 52.41   Q 186.07 52.83 186.37 53.20   Q 186.99 53.98 187.93 54.48   Z   M 164.21 60.65   A 0.59 0.59 0.0 0 0 165.24 60.49   L 167.25 54.68   A 0.59 0.59 0.0 0 0 167.16 54.13   L 163.67 49.64   A 0.59 0.59 0.0 0 0 162.65 49.80   L 160.62 55.32   A 0.59 0.59 0.0 0 0 160.70 55.88   L 164.21 60.65   Z   M 201.8118 50.3576   A 0.88 0.88 0.0 0 0 201.0185 49.3987   L 200.9588 49.3931   A 0.88 0.88 0.0 0 0 199.9999 50.1863   L 199.0682 60.0424   A 0.88 0.88 0.0 0 0 199.8615 61.0013   L 199.9212 61.0069   A 0.88 0.88 0.0 0 0 200.8801 60.2137   L 201.8118 50.3576   Z   M 159.08 50.97   Q 160.08 51.21 160.66 50.39   Q 161.41 49.33 160.11 49.46   L 154.29 50.08   Q 153.66 50.15 153.76 50.78   L 153.82 51.16   A 0.79 0.79 0.0 0 0 154.86 51.78   Q 155.60 51.53 156.37 51.65   A 0.65 0.65 0.0 0 1 156.93 52.23   L 157.87 60.89   Q 157.97 61.75 158.82 61.61   L 159.24 61.54   A 0.46 0.45 -8.4 0 0 159.62 61.03   L 158.43 51.55   Q 158.33 50.78 159.08 50.97   Z   M 213.15 56.47   L 212.97 59.43   Q 212.95 59.68 213.18 59.77   L 213.43 59.87   Q 214.19 60.16 214.32 59.36   L 215.54 51.49   Q 215.85 49.48 214.54 51.04   Q 213.03 52.84 211.82 54.79   A 0.65 0.64 -40.9 0 1 210.68 54.71   L 209.40 51.76   Q 207.99 48.51 207.47 52.02   L 206.11 61.33   A 0.52 0.51 80.1 0 0 206.86 61.86   L 207.19 61.69   Q 207.71 61.42 207.80 60.84   L 208.56 55.64   A 0.48 0.48 0.0 0 1 209.47 55.52   L 210.27 57.32   A 0.68 0.68 0.0 0 0 211.45 57.45   Q 211.91 56.81 212.44 56.19   Q 213.23 55.26 213.15 56.47   Z   M 153.76 59.24   Q 154.18 59.71 154.77 59.83   Q 156.25 60.11 155.56 58.78   Q 153.51 54.75 150.73 51.16   A 0.46 0.46 0.0 0 0 149.91 51.39   Q 149.38 56.07 148.61 60.59   Q 147.97 64.36 150.57 61.56   L 152.73 59.23   A 0.70 0.70 0.0 0 1 153.76 59.24   Z   M 144.95 62.93   C 144.64 60.42 145.60 59.37 146.91 57.65   A 1.80 1.79 -55.3 0 0 146.44 55.05   L 142.29 52.42   A 0.54 0.54 0.0 0 0 141.48 52.99   L 143.71 63.07   Q 143.82 63.57 144.32 63.46   L 144.62 63.39   A 0.42 0.41 -9.7 0 0 144.95 62.93   Z   M 219.07 55.53   L 221.36 53.78   A 0.83 0.82 -30.3 0 0 221.62 52.81   L 221.47 52.45   A 0.51 0.50 -26.6 0 0 220.74 52.21   Q 218.05 53.87 216.18 56.22   A 1.67 1.65 -40.4 0 0 216.02 58.05   L 218.88 63.24   Q 219.24 63.89 219.93 63.63   L 220.26 63.50   A 0.35 0.35 0.0 0 0 220.46 63.03   L 218.72 59.03   Q 218.17 57.78 219.47 58.22   L 220.45 58.56   A 0.62 0.61 -77.6 0 0 221.26 58.04   L 221.33 57.42   A 0.82 0.82 0.0 0 0 220.68 56.52   L 219.23 56.24   Q 218.37 56.06 219.07 55.53   Z   M 226.29 54.71   Q 227.40 54.76 228.47 55.25   A 0.85 0.85 0.0 0 0 229.48 55.03   L 229.76 54.70   A 0.66 0.66 0.0 0 0 229.44 53.64   L 225.33 52.46   Q 224.27 52.16 224.04 53.23   L 221.84 63.23   A 0.95 0.95 0.0 0 0 222.48 64.33   L 222.77 64.43   Q 223.39 64.63 223.54 63.99   L 225.52 55.30   Q 225.66 54.69 226.29 54.71   Z   M 137.34 60.17   Q 138.93 61.23 140.57 62.71   A 0.55 0.55 0.0 0 0 141.33 62.67   L 141.52 62.45   Q 142.11 61.82 141.47 61.23   L 138.31 58.33   Q 137.71 57.78 138.15 57.09   Q 139.17 55.52 139.29 53.67   A 0.44 0.44 0.0 0 0 138.58 53.29   Q 137.25 54.31 137.13 56.19   A 0.47 0.47 0.0 0 1 136.26 56.40   Q 135.70 55.47 135.60 54.22   A 0.53 0.53 0.0 0 0 134.94 53.75   L 134.65 53.83   Q 133.95 54.02 134.05 54.74   Q 134.76 60.07 136.59 65.21   A 0.42 0.42 0.0 0 0 137.18 65.44   L 137.44 65.30   Q 138.10 64.96 137.90 64.24   L 136.83 60.54   Q 136.57 59.65 137.34 60.17   Z   M 232.7177 55.3102   A 0.83 0.83 0.0 0 0 232.1237 54.2978   L 232.0657 54.2826   A 0.83 0.83 0.0 0 0 231.0532 54.8766   L 228.5023 64.6698   A 0.83 0.83 0.0 0 0 229.0963 65.6822   L 229.1543 65.6974   A 0.83 0.83 0.0 0 0 230.1668 65.1034   L 232.7177 55.3102   Z   M 127.00 60.84   A 0.74 0.73 78.9 0 1 127.73 61.34   L 128.96 64.85   A 0.36 0.35 81.4 0 0 129.28 65.09   L 129.74 65.13   Q 130.32 65.17 130.21 64.60   Q 129.38 60.49 128.14 56.94   Q 127.19 54.20 126.42 56.99   Q 126.39 57.13 126.93 58.44   A 0.67 0.67 0.0 0 1 126.47 59.35   L 125.85 59.49   Q 125.02 59.68 124.70 58.89   L 123.99 57.06   Q 123.81 56.60 123.38 56.85   L 123.06 57.02   A 1.10 1.09 -23.2 0 0 122.56 58.26   L 125.09 67.20   A 0.74 0.74 0.0 0 0 126.09 67.68   L 126.40 67.54   A 0.54 0.53 70.8 0 0 126.70 66.90   L 125.47 62.50   A 1.29 1.28 80.6 0 1 126.63 60.87   L 127.00 60.84   Z   M 234.93 62.47   L 232.33 64.79   Q 231.88 65.20 231.95 65.81   L 231.98 66.12   Q 232.04 66.65 232.51 66.39   Q 235.26 64.83 237.49 62.44   A 0.86 0.85 39.7 0 0 237.37 61.17   Q 236.52 60.52 236.03 59.62   Q 235.67 58.96 236.31 58.57   Q 237.56 57.80 238.12 56.57   Q 238.74 55.21 237.41 55.90   Q 235.63 56.81 234.18 58.19   Q 232.83 59.47 234.89 61.09   Q 235.73 61.76 234.93 62.47   Z   M 241.73 58.81   A 0.93 0.92 -68.7 0 1 242.22 59.94   L 239.67 67.70   Q 239.45 68.37 240.15 68.40   L 240.44 68.40   A 1.15 1.13 9.7 0 0 241.57 67.61   L 244.02 59.92   Q 244.21 59.30 244.83 59.51   L 246.22 59.99   A 0.94 0.93 -59.3 0 0 247.20 59.74   L 247.48 59.43   Q 248.13 58.72 247.21 58.44   L 240.55 56.42   Q 240.06 56.27 239.90 56.76   Q 239.66 57.49 240.27 57.95   Q 240.96 58.46 241.73 58.81   Z   M 119.49 64.77   L 122.32 67.37   A 0.49 0.49 0.0 0 0 123.02 67.33   L 123.21 67.11   Q 123.82 66.41 123.13 65.79   L 120.00 62.99   Q 119.57 62.61 119.70 62.06   L 120.53 58.65   A 0.58 0.58 0.0 0 0 120.17 57.97   L 119.86 57.86   A 0.71 0.70 -75.0 0 0 118.93 58.40   L 118.37 61.57   A 0.45 0.45 0.0 0 1 117.50 61.62   L 116.88 59.41   Q 116.66 58.62 115.85 58.76   L 115.57 58.80   A 0.53 0.52 76.0 0 0 115.17 59.48   L 118.59 69.71   Q 118.81 70.38 119.51 70.24   L 119.92 70.15   A 0.36 0.36 0.0 0 0 120.19 69.70   L 118.85 65.18   Q 118.44 63.81 119.49 64.77   Z   M 252.84 66.05   A 0.42 0.42 0.0 0 0 252.96 65.63   L 251.36 59.66   A 0.42 0.42 0.0 0 0 250.69 59.44   L 245.30 63.87   A 0.42 0.42 0.0 0 0 245.16 64.32   L 247.07 70.46   A 0.42 0.42 0.0 0 0 247.76 70.65   L 252.84 66.05   Z   M 112.03 65.76   L 115.05 69.26   Q 115.11 69.33 115.20 69.31   Q 116.35 69.10 115.46 67.24   A 2.55 2.29 -81.7 0 0 115.12 66.73   L 110.34 61.40   A 0.57 0.57 0.0 0 0 109.47 61.43   Q 109.25 61.71 109.28 62.06   Q 109.63 66.63 110.09 71.85   A 0.99 0.99 0.0 0 0 110.99 72.74   L 111.33 72.76   A 0.48 0.48 0.0 0 0 111.85 72.25   L 111.35 66.04   A 0.39 0.39 0.0 0 1 112.03 65.76   Z   M 258.97 69.25   Q 258.28 70.39 258.09 69.07   L 257.19 62.94   A 0.67 0.66 70.5 0 0 256.19 62.46   Q 255.83 62.68 255.66 63.08   Q 253.82 67.58 252.09 72.14   A 0.45 0.44 25.2 0 0 252.29 72.68   L 252.50 72.81   A 0.90 0.90 0.0 0 0 253.79 72.38   L 255.11 69.27   Q 255.95 67.27 256.41 69.39   L 257.55 74.74   Q 257.92 76.46 258.60 74.83   L 262.38 65.82   A 0.55 0.55 0.0 0 0 261.95 65.07   L 261.68 65.03   A 0.96 0.96 0.0 0 0 260.65 65.66   Q 259.94 67.62 258.97 69.25   Z   M 177.56 250.58   C 180.21 251.78 182.40 253.21 185.34 251.95   C 223.50 235.69 253.72 203.04 264.47 162.53   C 267.03 152.91 269.27 143.35 269.60 134.01   Q 270.41 110.94 269.71 85.08   Q 269.67 83.68 268.40 83.09   Q 212.19 57.20 150.96 66.38   Q 142.09 67.71 132.08 70.28   Q 114.21 74.87 97.26 82.55   A 1.89 1.87 78.9 0 0 96.16 84.20   Q 95.56 101.63 95.59 119.82   Q 95.61 131.52 96.60 139.80   Q 100.38 171.42 116.32 197.23   Q 138.26 232.77 177.56 250.58   Z   M 107.13 71.44   Q 107.56 71.51 107.97 71.35   Q 108.75 71.03 108.24 70.35   Q 105.56 66.84 102.42 64.22   A 0.41 0.40 -72.1 0 0 101.76 64.56   L 102.37 74.54   Q 102.50 76.74 103.81 74.97   L 106.12 71.84   Q 106.50 71.33 107.13 71.44   Z"
     id="path2166"
     fill="#010101"
     style="stroke:#000000;stroke-opacity:1;stroke-width:0.6;stroke-miterlimit:4;stroke-dasharray:none" />
  <path
     fill="#e8cc42"
     d="   M 181.47 55.35   L 184.29 58.59   A 0.29 0.29 0.0 0 1 184.35 58.86   L 184.08 59.85   A 0.29 0.29 0.0 0 1 183.59 59.97   L 178.32 54.47   A 0.29 0.29 0.0 0 1 178.32 54.07   L 183.33 48.70   A 0.29 0.29 0.0 0 1 183.73 48.67   L 184.42 49.24   A 0.29 0.29 0.0 0 1 184.45 49.67   L 181.94 52.39   A 0.29 0.29 0.0 0 0 182.10 52.87   L 183.98 53.20   A 0.29 0.29 0.0 0 1 184.22 53.49   L 184.20 54.40   A 0.29 0.29 0.0 0 1 183.94 54.68   L 181.67 54.87   A 0.29 0.29 0.0 0 0 181.47 55.35   Z"
     id="path2168" />
  <path
     fill="#e8cc42"
     d="   M 195.87 51.48   L 195.26 59.54   Q 195.20 60.45 194.30 60.62   L 193.96 60.68   A 0.47 0.47 0.0 0 1 193.40 60.18   L 194.12 51.44   A 0.84 0.84 0.0 0 0 193.22 50.53   Q 192.05 50.63 191.42 49.80   Q 190.91 49.13 191.74 49.01   Q 194.90 48.55 198.35 49.32   Q 199.02 49.47 198.64 50.04   Q 197.99 51.03 196.83 50.77   A 0.79 0.79 0.0 0 0 195.87 51.48   Z"
     id="path2170" />
  <path
     fill="#e8cc42"
     d="   M 170.53 54.94   Q 169.41 54.39 168.64 53.48   Q 168.27 53.04 168.59 52.55   Q 169.66 50.96 171.13 49.37   Q 171.70 48.76 172.48 49.08   A 0.46 0.46 0.0 0 1 172.67 49.79   L 171.01 51.88   A 1.13 1.13 0.0 0 0 171.32 53.56   L 173.17 54.63   A 0.51 0.50 30.8 0 1 173.35 55.33   L 170.36 60.07   Q 169.89 60.82 169.06 60.48   L 168.75 60.35   Q 168.33 60.18 168.57 59.80   L 170.87 56.13   A 0.84 0.83 -61.2 0 0 170.53 54.94   Z"
     id="path2172" />
  <path
     fill="#e8cc42"
     d="   M 187.93 54.48   Q 186.99 53.98 186.37 53.20   Q 186.07 52.83 186.30 52.41   Q 187.52 50.21 189.46 48.90   A 0.29 0.28 66.1 0 1 189.89 49.07   L 189.95 49.31   A 1.26 1.25 61.4 0 1 189.59 50.55   Q 188.76 51.34 188.32 52.38   Q 188.09 52.94 188.64 53.21   L 190.10 53.91   A 1.12 1.11 30.1 0 1 190.54 55.54   L 187.90 59.45   A 1.27 1.23 19.8 0 1 186.71 59.99   L 186.31 59.95   A 0.43 0.42 20.8 0 1 186.01 59.29   L 188.29 55.96   A 1.03 1.03 0.0 0 0 187.93 54.48   Z"
     id="path2174" />
  <path
     fill="#e8cc42"
     d="   M 164.21 60.65   L 160.70 55.88   A 0.59 0.59 0.0 0 1 160.62 55.32   L 162.65 49.80   A 0.59 0.59 0.0 0 1 163.67 49.64   L 167.16 54.13   A 0.59 0.59 0.0 0 1 167.25 54.68   L 165.24 60.49   A 0.59 0.59 0.0 0 1 164.21 60.65   Z   M 165.46 54.99   A 0.59 0.59 0.0 0 0 165.38 54.49   L 164.05 52.51   A 0.59 0.59 0.0 0 0 163.01 52.64   L 162.16 55.02   A 0.59 0.59 0.0 0 0 162.22 55.53   L 163.61 57.75   A 0.59 0.59 0.0 0 0 164.67 57.60   L 165.46 54.99   Z"
     id="path2176" />
  <rect
     fill="#e8cc42"
     x="-0.91"
     y="-5.83"
     transform="translate(200.44,55.20) rotate(5.4)"
     width="1.82"
     height="11.66"
     rx="0.88"
     id="rect2178" />
  <path
     fill="#e8cc42"
     d="   M 158.43 51.55   L 159.62 61.03   A 0.46 0.45 -8.4 0 1 159.24 61.54   L 158.82 61.61   Q 157.97 61.75 157.87 60.89   L 156.93 52.23   A 0.65 0.65 0.0 0 0 156.37 51.65   Q 155.60 51.53 154.86 51.78   A 0.79 0.79 0.0 0 1 153.82 51.16   L 153.76 50.78   Q 153.66 50.15 154.29 50.08   L 160.11 49.46   Q 161.41 49.33 160.66 50.39   Q 160.08 51.21 159.08 50.97   Q 158.33 50.78 158.43 51.55   Z"
     id="path2180" />
  <path
     fill="#e8cc42"
     d="   M 213.15 56.47   Q 213.23 55.26 212.44 56.19   Q 211.91 56.81 211.45 57.45   A 0.68 0.68 0.0 0 1 210.27 57.32   L 209.47 55.52   A 0.48 0.48 0.0 0 0 208.56 55.64   L 207.80 60.84   Q 207.71 61.42 207.19 61.69   L 206.86 61.86   A 0.52 0.51 80.1 0 1 206.11 61.33   L 207.47 52.02   Q 207.99 48.51 209.40 51.76   L 210.68 54.71   A 0.65 0.64 -40.9 0 0 211.82 54.79   Q 213.03 52.84 214.54 51.04   Q 215.85 49.48 215.54 51.49   L 214.32 59.36   Q 214.19 60.16 213.43 59.87   L 213.18 59.77   Q 212.95 59.68 212.97 59.43   L 213.15 56.47   Z"
     id="path2182" />
  <path
     fill="#e8cc42"
     d="   M 152.73 59.23   L 150.57 61.56   Q 147.97 64.36 148.61 60.59   Q 149.38 56.07 149.91 51.39   A 0.46 0.46 0.0 0 1 150.73 51.16   Q 153.51 54.75 155.56 58.78   Q 156.25 60.11 154.77 59.83   Q 154.18 59.71 153.76 59.24   A 0.70 0.70 0.0 0 0 152.73 59.23   Z   M 151.12 55.92   L 150.39 57.33   A 0.84 0.84 0.0 0 0 151.64 58.38   Q 152.97 57.37 152.15 55.90   Q 151.62 54.95 151.12 55.92   Z"
     id="path2184" />
  <path
     fill="#e8cc42"
     d="   M 146.91 57.65   C 145.60 59.37 144.64 60.42 144.95 62.93   A 0.42 0.41 -9.7 0 1 144.62 63.39   L 144.32 63.46   Q 143.82 63.57 143.71 63.07   L 141.48 52.99   A 0.54 0.54 0.0 0 1 142.29 52.42   L 146.44 55.05   A 1.80 1.79 -55.3 0 1 146.91 57.65   Z   M 145.56 57.38   Q 145.94 56.31 144.78 55.84   Q 143.96 55.51 144.00 56.39   L 144.05 57.65   Q 144.08 58.49 144.84 58.14   Q 145.37 57.90 145.56 57.38   Z"
     id="path2186" />
  <path
     fill="#010101"
     d="   M 165.46 54.99   L 164.67 57.60   A 0.59 0.59 0.0 0 1 163.61 57.75   L 162.22 55.53   A 0.59 0.59 0.0 0 1 162.16 55.02   L 163.01 52.64   A 0.59 0.59 0.0 0 1 164.05 52.51   L 165.38 54.49   A 0.59 0.59 0.0 0 1 165.46 54.99   Z"
     id="path2188" />
  <path
     fill="#e8cc42"
     d="   M 219.23 56.24   L 220.68 56.52   A 0.82 0.82 0.0 0 1 221.33 57.42   L 221.26 58.04   A 0.62 0.61 -77.6 0 1 220.45 58.56   L 219.47 58.22   Q 218.17 57.78 218.72 59.03   L 220.46 63.03   A 0.35 0.35 0.0 0 1 220.26 63.50   L 219.93 63.63   Q 219.24 63.89 218.88 63.24   L 216.02 58.05   A 1.67 1.65 -40.4 0 1 216.18 56.22   Q 218.05 53.87 220.74 52.21   A 0.51 0.50 -26.6 0 1 221.47 52.45   L 221.62 52.81   A 0.83 0.82 -30.3 0 1 221.36 53.78   L 219.07 55.53   Q 218.37 56.06 219.23 56.24   Z"
     id="path2190" />
  <path
     fill="#e8cc42"
     d="   M 225.52 55.30   L 223.54 63.99   Q 223.39 64.63 222.77 64.43   L 222.48 64.33   A 0.95 0.95 0.0 0 1 221.84 63.23   L 224.04 53.23   Q 224.27 52.16 225.33 52.46   L 229.44 53.64   A 0.66 0.66 0.0 0 1 229.76 54.70   L 229.48 55.03   A 0.85 0.85 0.0 0 1 228.47 55.25   Q 227.40 54.76 226.29 54.71   Q 225.66 54.69 225.52 55.30   Z"
     id="path2192" />
  <path
     fill="#e8cc42"
     d="   M 136.83 60.54   L 137.90 64.24   Q 138.10 64.96 137.44 65.30   L 137.18 65.44   A 0.42 0.42 0.0 0 1 136.59 65.21   Q 134.76 60.07 134.05 54.74   Q 133.95 54.02 134.65 53.83   L 134.94 53.75   A 0.53 0.53 0.0 0 1 135.60 54.22   Q 135.70 55.47 136.26 56.40   A 0.47 0.47 0.0 0 0 137.13 56.19   Q 137.25 54.31 138.58 53.29   A 0.44 0.44 0.0 0 1 139.29 53.67   Q 139.17 55.52 138.15 57.09   Q 137.71 57.78 138.31 58.33   L 141.47 61.23   Q 142.11 61.82 141.52 62.45   L 141.33 62.67   A 0.55 0.55 0.0 0 1 140.57 62.71   Q 138.93 61.23 137.34 60.17   Q 136.57 59.65 136.83 60.54   Z"
     id="path2194" />
  <rect
     fill="#e8cc42"
     x="-0.86"
     y="-5.89"
     transform="translate(230.61,59.99) rotate(14.6)"
     width="1.72"
     height="11.78"
     rx="0.83"
     id="rect2196" />
  <path
     fill="#010101"
     d="   M 151.12 55.92   Q 151.62 54.95 152.15 55.90   Q 152.97 57.37 151.64 58.38   A 0.84 0.84 0.0 0 1 150.39 57.33   L 151.12 55.92   Z"
     id="path2198" />
  <path
     fill="#e8cc42"
     d="   M 127.00 60.84   L 126.63 60.87   A 1.29 1.28 80.6 0 0 125.47 62.50   L 126.70 66.90   A 0.54 0.53 70.8 0 1 126.40 67.54   L 126.09 67.68   A 0.74 0.74 0.0 0 1 125.09 67.20   L 122.56 58.26   A 1.10 1.09 -23.2 0 1 123.06 57.02   L 123.38 56.85   Q 123.81 56.60 123.99 57.06   L 124.70 58.89   Q 125.02 59.68 125.85 59.49   L 126.47 59.35   A 0.67 0.67 0.0 0 0 126.93 58.44   Q 126.39 57.13 126.42 56.99   Q 127.19 54.20 128.14 56.94   Q 129.38 60.49 130.21 64.60   Q 130.32 65.17 129.74 65.13   L 129.28 65.09   A 0.36 0.35 81.4 0 1 128.96 64.85   L 127.73 61.34   A 0.74 0.73 78.9 0 0 127.00 60.84   Z"
     id="path2200" />
  <path
     fill="#010101"
     d="   M 145.56 57.38   Q 145.37 57.90 144.84 58.14   Q 144.08 58.49 144.05 57.65   L 144.00 56.39   Q 143.96 55.51 144.78 55.84   Q 145.94 56.31 145.56 57.38   Z"
     id="path2202" />
  <path
     fill="#e8cc42"
     d="   M 234.93 62.47   Q 235.73 61.76 234.89 61.09   Q 232.83 59.47 234.18 58.19   Q 235.63 56.81 237.41 55.90   Q 238.74 55.21 238.12 56.57   Q 237.56 57.80 236.31 58.57   Q 235.67 58.96 236.03 59.62   Q 236.52 60.52 237.37 61.17   A 0.86 0.85 39.7 0 1 237.49 62.44   Q 235.26 64.83 232.51 66.39   Q 232.04 66.65 231.98 66.12   L 231.95 65.81   Q 231.88 65.20 232.33 64.79   L 234.93 62.47   Z"
     id="path2204" />
  <path
     fill="#e8cc42"
     d="   M 241.73 58.81   Q 240.96 58.46 240.27 57.95   Q 239.66 57.49 239.90 56.76   Q 240.06 56.27 240.55 56.42   L 247.21 58.44   Q 248.13 58.72 247.48 59.43   L 247.20 59.74   A 0.94 0.93 -59.3 0 1 246.22 59.99   L 244.83 59.51   Q 244.21 59.30 244.02 59.92   L 241.57 67.61   A 1.15 1.13 9.7 0 1 240.44 68.40   L 240.15 68.40   Q 239.45 68.37 239.67 67.70   L 242.22 59.94   A 0.93 0.92 -68.7 0 0 241.73 58.81   Z"
     id="path2206" />
  <path
     fill="#e8cc42"
     d="   M 118.85 65.18   L 120.19 69.70   A 0.36 0.36 0.0 0 1 119.92 70.15   L 119.51 70.24   Q 118.81 70.38 118.59 69.71   L 115.17 59.48   A 0.53 0.52 76.0 0 1 115.57 58.80   L 115.85 58.76   Q 116.66 58.62 116.88 59.41   L 117.50 61.62   A 0.45 0.45 0.0 0 0 118.37 61.57   L 118.93 58.40   A 0.71 0.70 -75.0 0 1 119.86 57.86   L 120.17 57.97   A 0.58 0.58 0.0 0 1 120.53 58.65   L 119.70 62.06   Q 119.57 62.61 120.00 62.99   L 123.13 65.79   Q 123.82 66.41 123.21 67.11   L 123.02 67.33   A 0.49 0.49 0.0 0 1 122.32 67.37   L 119.49 64.77   Q 118.44 63.81 118.85 65.18   Z"
     id="path2208" />
  <path
     fill="#e8cc42"
     d="   M 252.84 66.05   L 247.76 70.65   A 0.42 0.42 0.0 0 1 247.07 70.46   L 245.16 64.32   A 0.42 0.42 0.0 0 1 245.30 63.87   L 250.69 59.44   A 0.42 0.42 0.0 0 1 251.36 59.66   L 252.96 65.63   A 0.42 0.42 0.0 0 1 252.84 66.05   Z   M 250.72 66.00   A 1.01 1.01 0.0 0 0 251.01 65.28   L 250.98 62.99   A 1.01 1.01 0.0 0 0 249.28 62.27   L 247.32 64.11   A 1.01 1.01 0.0 0 0 247.02 65.06   L 247.47 67.09   A 1.01 1.01 0.0 0 0 249.19 67.58   L 250.72 66.00   Z"
     id="path2210" />
  <path
     fill="#e8cc42"
     d="   M 112.03 65.76   A 0.39 0.39 0.0 0 0 111.35 66.04   L 111.85 72.25   A 0.48 0.48 0.0 0 1 111.33 72.76   L 110.99 72.74   A 0.99 0.99 0.0 0 1 110.09 71.85   Q 109.63 66.63 109.28 62.06   Q 109.25 61.71 109.47 61.43   A 0.57 0.57 0.0 0 1 110.34 61.40   L 115.12 66.73   A 2.55 2.29 -81.7 0 1 115.46 67.24   Q 116.35 69.10 115.20 69.31   Q 115.11 69.33 115.05 69.26   L 112.03 65.76   Z"
     id="path2212" />
  <path
     fill="#010101"
     d="   M 250.72 66.00   L 249.19 67.58   A 1.01 1.01 0.0 0 1 247.47 67.09   L 247.02 65.06   A 1.01 1.01 0.0 0 1 247.32 64.11   L 249.28 62.27   A 1.01 1.01 0.0 0 1 250.98 62.99   L 251.01 65.28   A 1.01 1.01 0.0 0 1 250.72 66.00   Z"
     id="path2214" />
  <path
     fill="#e8cc42"
     d="   M 258.97 69.25   Q 259.94 67.62 260.65 65.66   A 0.96 0.96 0.0 0 1 261.68 65.03   L 261.95 65.07   A 0.55 0.55 0.0 0 1 262.38 65.82   L 258.60 74.83   Q 257.92 76.46 257.55 74.74   L 256.41 69.39   Q 255.95 67.27 255.11 69.27   L 253.79 72.38   A 0.90 0.90 0.0 0 1 252.50 72.81   L 252.29 72.68   A 0.45 0.44 25.2 0 1 252.09 72.14   Q 253.82 67.58 255.66 63.08   Q 255.83 62.68 256.19 62.46   A 0.67 0.66 70.5 0 1 257.19 62.94   L 258.09 69.07   Q 258.28 70.39 258.97 69.25   Z"
     id="path2216" />
  <path
     d="   M 177.56 250.58   Q 138.26 232.77 116.32 197.23   Q 100.38 171.42 96.60 139.80   Q 95.61 131.52 95.59 119.82   Q 95.56 101.63 96.16 84.20   A 1.89 1.87 78.9 0 1 97.26 82.55   Q 114.21 74.87 132.08 70.28   Q 142.09 67.71 150.96 66.38   Q 212.19 57.20 268.40 83.09   Q 269.67 83.68 269.71 85.08   Q 270.41 110.94 269.60 134.01   C 269.27 143.35 267.03 152.91 264.47 162.53   C 253.72 203.04 223.50 235.69 185.34 251.95   C 182.40 253.21 180.21 251.78 177.56 250.58   Z   M 186.02 86.08   Q 191.47 85.21 195.04 87.52   A 1.21 1.21 0.0 0 0 196.91 86.45   C 196.59 79.47 191.43 73.37 183.78 76.56   C 180.01 78.13 179.21 83.24 178.95 86.95   A 0.74 0.73 12.9 0 0 179.42 87.69   C 182.08 88.71 183.47 86.48 186.02 86.08   Z   M 188.46 93.83   Q 189.44 93.71 190.36 94.11   A 0.82 0.81 26.6 0 0 191.39 93.77   L 193.59 89.90   A 1.87 1.87 0.0 0 0 192.19 87.12   C 188.73 86.70 184.77 86.20 182.31 89.12   Q 181.95 89.55 182.15 90.07   Q 183.34 93.12 185.21 95.72   A 0.91 0.91 0.0 0 0 186.72 95.67   L 187.47 94.45   Q 187.82 93.90 188.46 93.83   Z   M 172.10 89.96   Q 168.95 88.40 164.63 92.13   C 158.31 97.58 152.86 106.70 149.50 115.17   Q 147.32 120.66 143.69 126.49   C 141.45 130.09 140.54 134.03 141.06 138.00   Q 141.89 144.26 143.86 152.98   Q 144.54 155.97 146.43 155.36   Q 146.18 158.80 144.17 160.43   C 137.25 166.04 131.12 170.67 126.84 178.76   C 125.89 180.56 124.32 181.79 122.69 182.93   A 1.44 1.43 70.4 0 0 122.08 184.23   C 122.52 189.51 124.46 197.18 130.47 198.26   A 0.70 0.69 78.9 0 0 131.18 197.20   C 127.34 191.23 128.10 184.23 133.83 180.05   Q 138.65 176.54 142.47 171.86   C 144.22 169.70 146.38 168.23 148.63 166.53   L 148.40 169.36   Q 148.35 169.95 148.94 169.97   Q 160.79 170.37 170.43 164.96   C 174.90 162.45 176.62 154.33 177.05 149.69   Q 181.88 149.97 184.87 153.22   A 0.91 0.91 0.0 0 1 184.82 154.50   Q 181.08 158.03 177.21 161.75   Q 175.22 163.67 174.14 166.30   C 172.65 169.94 170.72 173.17 167.79 175.89   A 2.25 2.24 -48.2 0 0 167.98 179.35   Q 172.63 182.77 176.55 187.60   Q 177.24 188.45 177.84 187.58   A 1.08 1.08 0.0 0 0 177.94 186.52   L 174.10 177.99   A 1.88 1.88 0.0 0 1 174.49 175.88   C 179.32 171.13 185.24 166.78 189.01 161.41   Q 192.04 157.09 194.62 152.35   C 195.90 150.00 193.08 146.29 191.55 144.70   Q 188.05 141.05 184.22 138.48   Q 187.60 134.30 190.56 127.07   Q 192.35 122.70 191.50 119.12   L 201.46 117.75   Q 201.73 118.17 201.55 118.52   L 199.74 119.49   A 1.11 1.09 -6.1 0 0 199.19 120.16   Q 198.64 122.06 200.24 123.28   Q 200.35 123.40 200.01 123.68   Q 199.24 123.69 199.03 124.52   Q 196.79 133.40 198.46 143.07   Q 199.19 147.25 199.13 150.31   Q 198.96 158.94 199.00 167.94   C 199.03 174.85 198.95 179.06 203.61 183.39   Q 210.43 189.73 219.87 194.17   L 191.08 187.69   Q 189.32 187.29 189.66 189.06   L 189.99 190.78   A 2.16 2.15 1.5 0 0 191.60 192.47   Q 201.75 194.93 215.00 196.44   Q 218.03 196.79 220.36 195.53   Q 221.94 194.57 223.07 195.63   C 225.09 197.52 226.99 199.95 230.00 199.91   Q 234.06 199.86 237.67 199.80   C 243.05 199.71 247.63 190.16 248.49 185.92   Q 249.91 178.90 251.07 172.57   Q 251.75 168.89 251.30 165.28   Q 250.39 157.90 250.77 150.84   C 251.30 140.85 247.71 133.26 239.30 127.67   C 235.44 125.10 234.42 120.58 233.53 116.33   C 232.24 110.19 227.74 108.02 224.23 103.57   Q 220.58 98.93 216.72 94.51   C 215.56 93.19 213.66 92.05 211.86 92.78   Q 207.81 94.44 203.77 95.48   Q 201.16 96.15 199.57 98.55   Q 194.37 106.40 200.12 115.07   Q 195.55 114.37 192.30 111.98   Q 194.33 108.76 191.59 105.64   Q 188.30 101.89 185.13 97.74   Q 183.25 93.94 181.04 89.93   C 180.03 88.10 178.69 88.32 177.08 89.37   Q 174.34 91.17 172.10 89.96   Z   M 229.52 200.54   Q 229.42 200.46 229.32 200.37   Q 229.26 200.32 229.18 200.32   Q 208.33 200.11 189.66 200.25   Q 189.05 200.25 188.99 199.64   Q 188.41 193.27 183.87 188.34   C 181.67 185.94 179.80 187.18 177.60 188.51   A 1.37 1.37 0.0 0 1 175.68 187.98   C 174.56 185.84 172.06 183.68 169.47 184.52   Q 168.04 184.98 166.62 185.11   A 1.31 1.31 0.0 0 0 165.49 186.06   Q 164.42 189.86 162.06 193.78   C 161.05 195.45 160.49 197.68 160.02 199.62   A 0.59 0.58 -82.6 0 1 159.44 200.07   L 127.61 199.75   Q 125.57 199.73 126.73 201.40   L 129.07 204.79   A 3.78 3.77 72.7 0 0 132.15 206.41   L 233.03 206.84   A 3.35 3.33 19.2 0 0 235.64 205.59   L 238.49 202.02   Q 239.80 200.38 237.70 200.49   Q 233.77 200.69 229.74 200.62   Q 229.62 200.62 229.52 200.54   Z"
     id="path2218"
     fill="#27522e"
     style="stroke:#27522e;stroke-opacity:1;stroke-width:0.2;stroke-miterlimit:4;stroke-dasharray:none" />
  <path
     d="   M 106.12 71.84   L 103.81 74.97   Q 102.50 76.74 102.37 74.54   L 101.76 64.56   A 0.41 0.40 -72.1 0 1 102.42 64.22   Q 105.56 66.84 108.24 70.35   Q 108.75 71.03 107.97 71.35   Q 107.56 71.51 107.13 71.44   Q 106.50 71.33 106.12 71.84   Z   M 103.19 68.31   L 103.79 71.62   A 0.17 0.17 0.0 0 0 103.98 71.75   L 104.05 71.74   A 1.82 1.78 -10.3 0 0 105.53 69.66   L 105.50 69.53   A 1.82 1.78 -10.3 0 0 103.39 68.10   L 103.32 68.11   A 0.17 0.17 0.0 0 0 103.19 68.31   Z"
     id="path2220"
     fill="#e8cc42" />
  <path
     d="   M 103.19 68.31   A 0.17 0.17 0.0 0 1 103.32 68.11   L 103.39 68.10   A 1.82 1.78 -10.3 0 1 105.50 69.53   L 105.53 69.66   A 1.82 1.78 -10.3 0 1 104.05 71.74   L 103.98 71.75   A 0.17 0.17 0.0 0 1 103.79 71.62   L 103.19 68.31   Z"
     id="path2222"
     fill="#010101" />
  <path
     fill="#ffffff"
     d="   M 186.02 86.08   C 183.47 86.48 182.08 88.71 179.42 87.69   A 0.74 0.73 12.9 0 1 178.95 86.95   C 179.21 83.24 180.01 78.13 183.78 76.56   C 191.43 73.37 196.59 79.47 196.91 86.45   A 1.21 1.21 0.0 0 1 195.04 87.52   Q 191.47 85.21 186.02 86.08   Z   M 185.20 81.22   Q 184.99 83.04 184.34 81.33   Q 184.04 80.56 184.02 79.70   Q 184.01 79.16 183.49 79.29   C 181.41 79.82 182.53 82.83 183.43 84.09   Q 184.10 85.02 185.23 84.81   L 187.24 84.43   Q 188.24 84.24 187.82 83.32   Q 186.88 81.28 188.05 78.97   Q 188.54 78.01 187.45 78.02   L 186.89 78.02   A 1.50 1.50 0.0 0 0 185.42 79.35   L 185.20 81.22   Z   M 189.1218 83.6171   A 2.62 0.82 119.2 0 0 191.1158 81.7300   A 2.62 0.82 119.2 0 0 191.6782 79.0429   A 2.62 0.82 119.2 0 0 189.6842 80.9300   A 2.62 0.82 119.2 0 0 189.1218 83.6171   Z   M 192.81 82.81   Q 192.31 83.10 192.20 83.67   Q 192.08 84.31 192.73 84.27   Q 193.23 84.24 193.44 83.80   Q 193.71 83.21 193.20 82.83   A 0.35 0.35 0.0 0 0 192.81 82.81   Z"
     id="path2224" />
  <path
     fill="#94988b"
     d="   M 185.20 81.22   L 185.42 79.35   A 1.50 1.50 0.0 0 1 186.89 78.02   L 187.45 78.02   Q 188.54 78.01 188.05 78.97   Q 186.88 81.28 187.82 83.32   Q 188.24 84.24 187.24 84.43   L 185.23 84.81   Q 184.10 85.02 183.43 84.09   C 182.53 82.83 181.41 79.82 183.49 79.29   Q 184.01 79.16 184.02 79.70   Q 184.04 80.56 184.34 81.33   Q 184.99 83.04 185.20 81.22   Z"
     id="path2226" />
  <ellipse
     fill="#94988b"
     cx="0.00"
     cy="0.00"
     transform="translate(190.40,81.33) rotate(119.2)"
     rx="2.62"
     ry="0.82"
     id="ellipse2228" />
  <path
     fill="#6f7051"
     d="   M 192.81 82.81   A 0.35 0.35 0.0 0 1 193.20 82.83   Q 193.71 83.21 193.44 83.80   Q 193.23 84.24 192.73 84.27   Q 192.08 84.31 192.20 83.67   Q 192.31 83.10 192.81 82.81   Z"
     id="path2230" />
  <path
     fill="#ffffff"
     d="   M 187.47 94.45   L 186.72 95.67   A 0.91 0.91 0.0 0 1 185.21 95.72   Q 183.34 93.12 182.15 90.07   Q 181.95 89.55 182.31 89.12   C 184.77 86.20 188.73 86.70 192.19 87.12   A 1.87 1.87 0.0 0 1 193.59 89.90   L 191.39 93.77   A 0.82 0.81 26.6 0 1 190.36 94.11   Q 189.44 93.71 188.46 93.83   Q 187.82 93.90 187.47 94.45   Z   M 190.9736 90.6718   A 1.15 0.86 79.8 0 0 191.6164 89.3877   A 1.15 0.86 79.8 0 0 190.5664 88.4082   A 1.15 0.86 79.8 0 0 189.9236 89.6923   A 1.15 0.86 79.8 0 0 190.9736 90.6718   Z"
     id="path2232" />
  <ellipse
     fill="#044912"
     cx="0.00"
     cy="0.00"
     transform="translate(190.77,89.54) rotate(79.8)"
     rx="1.15"
     ry="0.86"
     id="ellipse2234" />
  <path
     fill="#ffffff"
     d="   M 185.13 97.74   Q 183.76 98.46 183.29 99.51   A 0.82 0.81 -54.1 0 1 181.94 99.73   Q 177.83 95.20 172.18 92.74   Q 171.16 92.30 172.10 89.96   Q 174.34 91.17 177.08 89.37   C 178.69 88.32 180.03 88.10 181.04 89.93   Q 183.25 93.94 185.13 97.74   Z"
     id="path2236" />
  <path
     fill="#166fb3"
     d="   M 172.10 89.96   Q 171.16 92.30 172.18 92.74   Q 177.83 95.20 181.94 99.73   A 0.82 0.81 -54.1 0 0 183.29 99.51   Q 183.76 98.46 185.13 97.74   Q 188.30 101.89 191.59 105.64   Q 194.33 108.76 192.30 111.98   C 183.31 113.85 180.64 105.64 176.36 100.09   C 173.88 96.88 170.77 97.25 167.22 96.98   A 1.24 1.23 -66.7 0 0 166.20 97.39   C 161.66 102.61 157.86 108.88 160.88 115.89   Q 161.05 116.28 160.92 116.68   C 160.64 117.54 159.69 117.95 159.29 118.90   Q 158.13 121.60 158.95 123.67   A 1.57 1.57 0.0 0 0 159.71 124.50   C 162.37 125.86 164.59 123.02 166.54 121.58   Q 166.60 121.53 166.67 121.58   L 166.92 121.78   Q 167.18 122.00 166.91 122.20   Q 162.43 125.44 165.47 130.27   Q 165.73 130.68 165.30 130.91   L 165.02 131.06   Q 164.77 131.19 164.67 130.93   L 162.97 126.51   Q 162.74 125.92 162.12 126.01   Q 160.19 126.30 158.55 125.16   Q 158.06 124.81 157.64 125.24   Q 152.22 130.79 151.35 137.47   Q 150.95 140.49 150.05 143.39   Q 148.20 149.32 146.43 155.36   Q 144.54 155.97 143.86 152.98   Q 141.89 144.26 141.06 138.00   C 140.54 134.03 141.45 130.09 143.69 126.49   Q 147.32 120.66 149.50 115.17   C 152.86 106.70 158.31 97.58 164.63 92.13   Q 168.95 88.40 172.10 89.96   Z   M 172.0461 95.3677   A 1.47 1.25 4.2 0 0 170.6715 94.0134   A 1.47 1.25 4.2 0 0 169.1139 95.1523   A 1.47 1.25 4.2 0 0 170.4885 96.5066   A 1.47 1.25 4.2 0 0 172.0461 95.3677   Z"
     id="path2238" />
  <path
     fill="#6f7051"
     d="   M 220.36 195.53   Q 220.34 194.94 219.87 194.17   Q 210.43 189.73 203.61 183.39   C 198.95 179.06 199.03 174.85 199.00 167.94   Q 198.96 158.94 199.13 150.31   Q 199.19 147.25 198.46 143.07   Q 196.79 133.40 199.03 124.52   Q 199.24 123.69 200.01 123.68   L 208.57 124.27   A 3.16 3.16 0.0 0 1 211.51 127.39   C 211.55 131.69 211.88 137.69 216.01 140.39   C 220.39 143.25 219.97 146.57 221.91 150.65   C 224.42 155.91 227.09 161.44 228.87 167.01   C 230.16 171.06 233.35 174.90 236.26 178.01   C 238.44 180.35 239.23 183.29 240.36 186.17   Q 240.82 187.35 241.74 188.14   Q 242.36 188.67 242.07 187.91   Q 240.77 184.49 239.29 180.87   Q 238.15 178.07 235.67 175.61   C 233.29 173.25 231.34 170.34 230.20 167.21   Q 227.36 159.44 223.84 152.85   Q 221.74 148.93 220.94 143.53   C 220.28 139.10 213.77 139.45 213.28 134.32   Q 212.90 130.45 212.56 126.33   A 3.34 3.34 0.0 0 0 209.23 123.26   L 200.24 123.28   Q 198.64 122.06 199.19 120.16   A 1.11 1.09 -6.1 0 1 199.74 119.49   L 201.55 118.52   Q 206.63 118.98 208.81 114.81   C 209.76 113.00 210.57 112.45 212.28 111.65   Q 212.64 111.49 212.76 111.11   Q 213.76 107.80 211.02 103.89   Q 210.36 102.95 209.19 103.17   Q 208.55 103.28 208.54 103.94   L 208.46 109.38   Q 207.04 109.03 206.00 109.15   Q 205.50 109.21 205.25 109.65   Q 204.21 111.47 203.14 113.17   Q 201.80 115.30 200.12 115.07   Q 194.37 106.40 199.57 98.55   Q 201.16 96.15 203.77 95.48   Q 207.81 94.44 211.86 92.78   C 213.66 92.05 215.56 93.19 216.72 94.51   Q 220.58 98.93 224.23 103.57   C 227.74 108.02 232.24 110.19 233.53 116.33   C 234.42 120.58 235.44 125.10 239.30 127.67   C 247.71 133.26 251.30 140.85 250.77 150.84   Q 250.39 157.90 251.30 165.28   Q 251.75 168.89 251.07 172.57   Q 249.91 178.90 248.49 185.92   C 247.63 190.16 243.05 199.71 237.67 199.80   Q 234.06 199.86 230.00 199.91   C 226.99 199.95 225.09 197.52 223.07 195.63   Q 221.94 194.57 220.36 195.53   Z   M 232.42 139.82   Q 234.70 146.34 237.40 151.87   A 0.25 0.25 0.0 0 0 237.74 151.99   L 238.02 151.86   Q 238.54 151.62 238.30 151.09   Q 235.60 145.02 233.72 139.76   C 232.14 135.30 229.79 132.84 226.83 129.55   C 220.68 122.69 221.88 114.11 225.74 106.31   Q 225.88 106.02 225.61 105.85   L 225.35 105.69   Q 225.00 105.47 224.77 105.82   C 218.52 115.75 220.52 126.37 229.10 134.20   C 230.55 135.52 231.78 137.97 232.42 139.82   Z   M 200.10 148.85   L 199.98 149.12   Q 199.88 149.35 200.11 149.45   Q 203.63 150.95 204.52 153.73   C 205.43 156.58 206.25 159.49 207.52 162.16   Q 210.55 168.55 213.47 175.15   Q 213.58 175.40 213.77 175.21   L 214.01 174.97   Q 214.12 174.87 214.06 174.72   Q 211.97 168.85 209.29 163.37   C 207.65 160.02 206.49 156.42 205.22 152.96   Q 204.08 149.84 200.44 148.69   Q 200.20 148.61 200.10 148.85   Z"
     id="path2240" />
  <ellipse
     fill="#ffffff"
     cx="0.00"
     cy="0.00"
     transform="translate(170.58,95.26) rotate(4.2)"
     rx="1.47"
     ry="1.25"
     id="ellipse2242" />
  <path
     fill="#ffffff"
     d="   M 192.30 111.98   Q 195.55 114.37 200.12 115.07   Q 201.80 115.30 203.14 113.17   Q 204.21 111.47 205.25 109.65   Q 205.50 109.21 206.00 109.15   Q 207.04 109.03 208.46 109.38   Q 209.47 110.26 209.23 111.50   Q 208.06 117.66 201.46 117.75   L 191.50 119.12   L 184.94 118.46   Q 184.39 118.40 183.98 118.04   Q 179.66 114.28 174.70 111.55   C 173.00 110.62 171.80 109.14 170.82 107.49   A 0.67 0.67 0.0 0 0 169.67 107.47   Q 168.14 109.86 166.08 111.87   Q 165.80 112.14 165.80 112.54   Q 165.81 112.87 166.02 113.13   Q 166.36 113.55 166.82 113.26   Q 168.46 112.22 169.68 110.63   Q 170.03 110.18 170.47 110.55   Q 174.30 113.81 178.82 115.86   A 1.37 1.36 -67.3 0 1 179.53 117.60   L 176.96 124.15   A 1.21 1.18 0.8 0 1 176.23 124.84   Q 174.77 125.35 174.70 126.84   Q 174.61 129.09 173.83 131.13   C 172.91 133.56 169.15 134.99 170.58 137.98   Q 170.90 138.65 170.30 139.10   L 167.58 141.14   Q 167.12 141.48 166.98 140.93   L 166.11 137.77   Q 166.01 137.39 165.63 137.53   L 165.30 137.65   Q 164.99 137.76 165.01 138.09   C 165.18 140.33 165.96 141.97 164.92 144.11   Q 158.64 156.96 148.63 166.53   C 146.38 168.23 144.22 169.70 142.47 171.86   Q 138.65 176.54 133.83 180.05   C 128.10 184.23 127.34 191.23 131.18 197.20   A 0.70 0.69 78.9 0 1 130.47 198.26   C 124.46 197.18 122.52 189.51 122.08 184.23   A 1.44 1.43 70.4 0 1 122.69 182.93   C 124.32 181.79 125.89 180.56 126.84 178.76   C 131.12 170.67 137.25 166.04 144.17 160.43   Q 146.18 158.80 146.43 155.36   Q 148.20 149.32 150.05 143.39   Q 150.95 140.49 151.35 137.47   Q 152.22 130.79 157.64 125.24   Q 158.06 124.81 158.55 125.16   Q 160.19 126.30 162.12 126.01   Q 162.74 125.92 162.97 126.51   L 164.67 130.93   Q 164.77 131.19 165.02 131.06   L 165.30 130.91   Q 165.73 130.68 165.47 130.27   Q 162.43 125.44 166.91 122.20   Q 167.18 122.00 166.92 121.78   L 166.67 121.58   Q 166.60 121.53 166.54 121.58   C 164.59 123.02 162.37 125.86 159.71 124.50   A 1.57 1.57 0.0 0 1 158.95 123.67   Q 158.13 121.60 159.29 118.90   C 159.69 117.95 160.64 117.54 160.92 116.68   Q 161.05 116.28 160.88 115.89   C 157.86 108.88 161.66 102.61 166.20 97.39   A 1.24 1.23 -66.7 0 1 167.22 96.98   C 170.77 97.25 173.88 96.88 176.36 100.09   C 180.64 105.64 183.31 113.85 192.30 111.98   Z"
     id="path2244" />
  <path
     fill="#4d4d34"
     d="   M 201.55 118.52   Q 201.73 118.17 201.46 117.75   Q 208.06 117.66 209.23 111.50   Q 209.47 110.26 208.46 109.38   L 208.54 103.94   Q 208.55 103.28 209.19 103.17   Q 210.36 102.95 211.02 103.89   Q 213.76 107.80 212.76 111.11   Q 212.64 111.49 212.28 111.65   C 210.57 112.45 209.76 113.00 208.81 114.81   Q 206.63 118.98 201.55 118.52   Z"
     id="path2246"
     style="stroke:#4d4d34;stroke-opacity:1;stroke-width:0.2;stroke-miterlimit:4;stroke-dasharray:none;stroke-linejoin:round;stroke-linecap:round" />
  <path
     fill="#4d4d34"
     d="   M 232.42 139.82   C 231.78 137.97 230.55 135.52 229.10 134.20   C 220.52 126.37 218.52 115.75 224.77 105.82   Q 225.00 105.47 225.35 105.69   L 225.61 105.85   Q 225.88 106.02 225.74 106.31   C 221.88 114.11 220.68 122.69 226.83 129.55   C 229.79 132.84 232.14 135.30 233.72 139.76   Q 235.60 145.02 238.30 151.09   Q 238.54 151.62 238.02 151.86   L 237.74 151.99   A 0.25 0.25 0.0 0 1 237.40 151.87   Q 234.70 146.34 232.42 139.82   Z"
     id="path2248"
     style="stroke:#4d4d34;stroke-opacity:1;stroke-width:0.2;stroke-miterlimit:4;stroke-dasharray:none;stroke-linejoin:round;stroke-linecap:round" />
  <path
     fill="#0975c0"
     d="   M 191.50 119.12   Q 192.35 122.70 190.56 127.07   Q 187.60 134.30 184.22 138.48   L 175.16 133.31   Q 174.68 133.04 174.30 133.43   L 172.42 135.37   A 1.39 1.39 0.0 0 0 172.04 136.44   L 172.45 141.43   A 0.49 0.48 -86.5 0 1 171.87 141.95   Q 168.18 141.23 166.85 143.89   A 1.13 1.13 0.0 0 0 167.41 145.42   L 177.05 149.69   C 176.62 154.33 174.90 162.45 170.43 164.96   Q 160.79 170.37 148.94 169.97   Q 148.35 169.95 148.40 169.36   L 148.63 166.53   Q 158.64 156.96 164.92 144.11   C 165.96 141.97 165.18 140.33 165.01 138.09   Q 164.99 137.76 165.30 137.65   L 165.63 137.53   Q 166.01 137.39 166.11 137.77   L 166.98 140.93   Q 167.12 141.48 167.58 141.14   L 170.30 139.10   Q 170.90 138.65 170.58 137.98   C 169.15 134.99 172.91 133.56 173.83 131.13   Q 174.61 129.09 174.70 126.84   Q 174.77 125.35 176.23 124.84   A 1.21 1.18 0.8 0 0 176.96 124.15   L 179.53 117.60   A 1.37 1.36 -67.3 0 0 178.82 115.86   Q 174.30 113.81 170.47 110.55   Q 170.03 110.18 169.68 110.63   Q 168.46 112.22 166.82 113.26   Q 166.36 113.55 166.02 113.13   Q 165.81 112.87 165.80 112.54   Q 165.80 112.14 166.08 111.87   Q 168.14 109.86 169.67 107.47   A 0.67 0.67 0.0 0 1 170.82 107.49   C 171.80 109.14 173.00 110.62 174.70 111.55   Q 179.66 114.28 183.98 118.04   Q 184.39 118.40 184.94 118.46   L 191.50 119.12   Z"
     id="path2250" />
  <path
     fill="#4d4d34"
     d="   M 200.24 123.28   L 209.23 123.26   A 3.34 3.34 0.0 0 1 212.56 126.33   Q 212.90 130.45 213.28 134.32   C 213.77 139.45 220.28 139.10 220.94 143.53   Q 221.74 148.93 223.84 152.85   Q 227.36 159.44 230.20 167.21   C 231.34 170.34 233.29 173.25 235.67 175.61   Q 238.15 178.07 239.29 180.87   Q 240.77 184.49 242.07 187.91   Q 242.36 188.67 241.74 188.14   Q 240.82 187.35 240.36 186.17   C 239.23 183.29 238.44 180.35 236.26 178.01   C 233.35 174.90 230.16 171.06 228.87 167.01   C 227.09 161.44 224.42 155.91 221.91 150.65   C 219.97 146.57 220.39 143.25 216.01 140.39   C 211.88 137.69 211.55 131.69 211.51 127.39   A 3.16 3.16 0.0 0 0 208.57 124.27   L 200.01 123.68   Q 200.35 123.40 200.24 123.28   Z"
     id="path2252"
     style="stroke:#4d4d34;stroke-opacity:1;stroke-width:0.2;stroke-miterlimit:4;stroke-dasharray:none;stroke-linejoin:round;stroke-linecap:round" />
  <path
     fill="#ffffff"
     d="   M 184.22 138.48   Q 188.05 141.05 191.55 144.70   C 193.08 146.29 195.90 150.00 194.62 152.35   Q 192.04 157.09 189.01 161.41   C 185.24 166.78 179.32 171.13 174.49 175.88   A 1.88 1.88 0.0 0 0 174.10 177.99   L 177.94 186.52   A 1.08 1.08 0.0 0 1 177.84 187.58   Q 177.24 188.45 176.55 187.60   Q 172.63 182.77 167.98 179.35   A 2.25 2.24 -48.2 0 1 167.79 175.89   C 170.72 173.17 172.65 169.94 174.14 166.30   Q 175.22 163.67 177.21 161.75   Q 181.08 158.03 184.82 154.50   A 0.91 0.91 0.0 0 0 184.87 153.22   Q 181.88 149.97 177.05 149.69   L 167.41 145.42   A 1.13 1.13 0.0 0 1 166.85 143.89   Q 168.18 141.23 171.87 141.95   A 0.49 0.48 -86.5 0 0 172.45 141.43   L 172.04 136.44   A 1.39 1.39 0.0 0 1 172.42 135.37   L 174.30 133.43   Q 174.68 133.04 175.16 133.31   L 184.22 138.48   Z"
     id="path2254" />
  <path
     d="   M 200.44 148.69   Q 204.08 149.84 205.22 152.96   C 206.49 156.42 207.65 160.02 209.29 163.37   Q 211.97 168.85 214.06 174.72   Q 214.12 174.87 214.01 174.97   L 213.77 175.21   Q 213.58 175.40 213.47 175.15   Q 210.55 168.55 207.52 162.16   C 206.25 159.49 205.43 156.58 204.52 153.73   Q 203.63 150.95 200.11 149.45   Q 199.88 149.35 199.98 149.12   L 200.10 148.85   Q 200.20 148.61 200.44 148.69   Z"
     id="path2256"
     fill="#4d4d34"
     style="stroke:#4d4d34;stroke-opacity:1;stroke-width:0.2;stroke-miterlimit:4;stroke-dasharray:none;stroke-linejoin:round;stroke-linecap:round" />
  <path
     fill="#6f7051"
     d="   M 229.74 200.62   Q 233.77 200.69 237.70 200.49   Q 239.80 200.38 238.49 202.02   L 235.64 205.59   A 3.35 3.33 19.2 0 1 233.03 206.84   L 132.15 206.41   A 3.78 3.77 72.7 0 1 129.07 204.79   L 126.73 201.40   Q 125.57 199.73 127.61 199.75   L 159.44 200.07   A 0.59 0.58 -82.6 0 0 160.02 199.62   C 160.49 197.68 161.05 195.45 162.06 193.78   Q 164.42 189.86 165.49 186.06   A 1.31 1.31 0.0 0 1 166.62 185.11   Q 168.04 184.98 169.47 184.52   C 172.06 183.68 174.56 185.84 175.68 187.98   A 1.37 1.37 0.0 0 0 177.60 188.51   C 179.80 187.18 181.67 185.94 183.87 188.34   Q 188.41 193.27 188.99 199.64   Q 189.05 200.25 189.66 200.25   Q 208.33 200.11 229.18 200.32   Q 229.26 200.32 229.32 200.37   Q 229.42 200.46 229.52 200.54   Q 229.62 200.62 229.74 200.62   Z   M 173.6234 188.5764   A 1.83 0.42 17.7 0 0 172.0077 187.6199   A 1.83 0.42 17.7 0 0 170.1366 187.4636   A 1.83 0.42 17.7 0 0 171.7523 188.4201   A 1.83 0.42 17.7 0 0 173.6234 188.5764   Z   M 180.4435 191.7671   A 1.33 0.35 34.7 0 0 179.5492 190.7222   A 1.33 0.35 34.7 0 0 178.2565 190.2529   A 1.33 0.35 34.7 0 0 179.1508 191.2978   A 1.33 0.35 34.7 0 0 180.4435 191.7671   Z"
     id="path2258" />
  <ellipse
     cx="218.77431"
     cy="122.81095"
     transform="matrix(0.94683982,0.32170538,-0.28714238,0.95788791,0,0)"
     rx="2.7548528"
     ry="0.665362"
     id="ellipse2260"
     style="fill:#4d4d34;stroke:#4d4d34;stroke-width:0.30885741;stroke-linecap:round;stroke-linejoin:round;stroke-miterlimit:4;stroke-dasharray:none;stroke-opacity:1" />
  <path
     d="   M 219.87 194.17   Q 220.34 194.94 220.36 195.53   Q 218.03 196.79 215.00 196.44   Q 201.75 194.93 191.60 192.47   A 2.16 2.15 1.5 0 1 189.99 190.78   L 189.66 189.06   Q 189.32 187.29 191.08 187.69   L 219.87 194.17   Z"
     id="path2262"
     fill="#94988b" />
  <ellipse
     cx="288.07019"
     cy="114.54302"
     transform="matrix(0.9179021,0.39680693,-0.74269249,0.66963264,0,0)"
     rx="3.7378018"
     ry="0.84177804"
     id="ellipse2264"
     style="fill:#4d4d34;stroke:#4d4d34;stroke-width:0.51996857;stroke-linecap:round;stroke-linejoin:round;stroke-miterlimit:4;stroke-dasharray:none;stroke-opacity:1" />
</svg>
